<svg width="30" height="30" viewBox="0 0 64 49" fill="none" xmlns="http://www.w3.org/2000/svg">
    <path d="M0.5625 49V36.3437C0.5625 32.5 1.24219 28.4219 2.60156 24.1094C4.00781 19.75 6.02344 15.5547 8.64844 11.5234C11.3203 7.44531 14.5313 3.90624 18.2813 0.906246L27.2813 8.21874C24.3281 12.4375 21.75 16.8437 19.5469 21.4375C17.3906 25.9844 16.3125 30.8594 16.3125 36.0625V49H0.5625ZM36.5625 49V36.3437C36.5625 32.5 37.2422 28.4219 38.6016 24.1094C40.0078 19.75 42.0234 15.5547 44.6484 11.5234C47.3203 7.44531 50.5313 3.90624 54.2813 0.906246L63.2813 8.21874C60.3281 12.4375 57.75 16.8437 55.5469 21.4375C53.3906 25.9844 52.3125 30.8594 52.3125 36.0625V49H36.5625Z" fill="#FFDF30"/>
</svg>
