<svg width="429" height="513" viewBox="0 0 429 513" fill="none" xmlns="http://www.w3.org/2000/svg">
    <rect width="429" height="513" fill="#151515"/>
    <path opacity="0.75" d="M168.219 421.177L211.359 378.038C213.015 376.382 213.015 373.696 211.359 372.04L168.219 328.9C168.212 328.893 168.203 328.89 168.193 328.89H124.486C124.454 328.89 124.437 328.929 124.46 328.952L170.52 375.013C170.535 375.027 170.535 375.05 170.52 375.065L124.46 421.125C124.437 421.149 124.454 421.188 124.486 421.188H168.193C168.203 421.188 168.212 421.185 168.219 421.177Z" fill="#FFCF30" stroke="#FECF30"/>
    <path d="M75.2699 421.177L118.409 378.038C120.066 376.381 120.066 373.696 118.409 372.04L75.2699 328.9C75.2629 328.893 75.2538 328.89 75.2439 328.89H31.5368C31.5042 328.89 31.4877 328.929 31.5108 328.952L77.571 375.013C77.5855 375.027 77.5855 375.05 77.571 375.065L31.5108 421.125C31.4877 421.148 31.5042 421.188 31.5368 421.188H75.2439C75.2538 421.188 75.2629 421.184 75.2699 421.177Z" fill="#FFCF30" stroke="black"/>
    <path opacity="0.4" d="M261.169 421.177L304.308 378.038C305.965 376.382 305.965 373.696 304.308 372.04L261.169 328.9C261.162 328.893 261.153 328.89 261.143 328.89H217.436C217.403 328.89 217.386 328.929 217.41 328.952L263.47 375.013C263.484 375.027 263.484 375.05 263.47 375.065L217.41 421.125C217.386 421.149 217.403 421.188 217.436 421.188H261.143C261.153 421.188 261.162 421.185 261.169 421.177Z" fill="#FFCF30" stroke="#FECF30"/>
    <path opacity="0.2" d="M354.118 421.177L397.258 378.038C398.914 376.382 398.914 373.696 397.258 372.04L354.118 328.9C354.111 328.893 354.102 328.89 354.092 328.89H310.385C310.352 328.89 310.336 328.929 310.359 328.952L356.419 375.013C356.434 375.027 356.434 375.05 356.419 375.065L310.359 421.125C310.336 421.149 310.352 421.188 310.385 421.188H354.092C354.102 421.188 354.111 421.185 354.118 421.177Z" fill="#FFCF30" stroke="#FECF30"/>
</svg>
