<svg width="17" height="17" viewBox="0 0 17 17" fill="none" xmlns="http://www.w3.org/2000/svg">
    <path d="M4.61103 3.11843H4.84731C8.27997 3.11843 11.7126 3.11764 15.1453 3.11922C16.1251 3.11922 16.8837 3.7585 16.9896 4.72808C17.0276 5.06787 16.9509 5.42583 16.8948 5.77036C16.6728 7.13742 16.4381 8.5029 16.2073 9.86838C16.0501 10.7961 15.346 11.4014 14.4096 11.4022C11.7411 11.4045 9.07254 11.4045 6.40401 11.4022C5.4692 11.4014 4.76117 10.7992 4.59918 9.87312C4.1377 7.24173 3.67859 4.60955 3.21869 1.97816C3.13651 1.50562 2.94765 1.34362 2.47194 1.34362C2.07131 1.34362 1.67067 1.3452 1.27004 1.34283C0.898639 1.34046 0.631551 1.08602 0.636293 0.742276C0.641034 0.406438 0.903381 0.162264 1.26846 0.160684C1.69438 0.158313 2.11951 0.159103 2.54464 0.159894C3.5 0.163054 4.2104 0.769934 4.36765 1.71265C4.44509 2.17334 4.52727 2.63324 4.61103 3.11843ZM4.81965 4.30216C4.85837 4.525 4.89156 4.71939 4.92554 4.91299C5.20369 6.49498 5.47947 8.07777 5.76157 9.65976C5.8319 10.0549 6.03973 10.2192 6.43878 10.2192C9.06938 10.22 11.7008 10.22 14.3322 10.2192C14.7462 10.2192 14.9533 10.0375 15.0212 9.62974C15.2741 8.12992 15.5262 6.6309 15.783 5.13188C15.8754 4.59217 15.64 4.30216 15.0947 4.30216H5.03775H4.81965Z" fill="white"/>
    <path d="M5.36975 14.6515C5.36975 13.5152 6.30536 12.5827 7.44168 12.5867C8.59143 12.5914 9.51281 13.5207 9.51044 14.6728C9.50728 15.7989 8.57483 16.7282 7.44721 16.7282C6.29667 16.7282 5.36896 15.8013 5.36975 14.6515ZM8.32671 14.6705C8.33066 14.1774 7.93239 13.7728 7.44326 13.7712C6.95886 13.7704 6.5598 14.1632 6.55269 14.6452C6.54716 15.1367 6.94463 15.5405 7.43614 15.5444C7.91817 15.5484 8.32197 15.1509 8.32671 14.6705Z" fill="white"/>
    <path d="M13.3539 16.7274C12.2042 16.7242 11.2812 15.7934 11.2852 14.642C11.2891 13.5152 12.2216 12.5859 13.3476 12.5867C14.5061 12.5867 15.433 13.5215 15.4259 14.6823C15.4187 15.8068 14.4831 16.7305 13.3539 16.7274ZM14.2421 14.6539C14.2382 14.1616 13.8336 13.7649 13.3429 13.7712C12.8608 13.7775 12.4673 14.1782 12.4689 14.661C12.4713 15.1517 12.8759 15.5484 13.3689 15.5444C13.8494 15.5405 14.2461 15.1351 14.2421 14.6539Z" fill="white"/>
</svg>
