<svg width="38" height="38" viewBox="0 0 38 38" fill="none" xmlns="http://www.w3.org/2000/svg">
    <path d="M18.5068 0.48645C28.7315 0.48645 37.0204 8.77526 37.0204 19C37.0204 29.2248 28.7315 37.5136 18.5068 37.5136C8.28198 37.5136 -0.00683594 29.2248 -0.00683594 19C-0.00683594 8.77526 8.28198 0.48645 18.5068 0.48645Z" fill="#FFCF30"/>
    <path d="M8.75781 13.6649C8.86967 13.3929 8.9421 13.0936 9.10224 12.8529C9.42736 12.3661 9.92309 12.1568 10.5025 12.1423C10.5347 12.1415 10.5661 12.1415 10.5983 12.1415C15.8718 12.1415 21.1453 12.1423 26.4196 12.1415C27.1624 12.1415 27.7442 12.4329 28.0678 13.1169C28.1804 13.3551 28.2456 13.6392 28.2464 13.9031C28.2585 17.2991 28.2577 20.6951 28.252 24.0903C28.2504 25.1309 27.498 25.8511 26.4381 25.8519C22.0659 25.8527 17.6929 25.8527 13.3207 25.8527C12.4323 25.8527 11.543 25.8334 10.6554 25.8576C9.68086 25.8833 8.91554 25.2838 8.77391 24.3632C8.7723 24.3511 8.76345 24.3406 8.75781 24.3286V13.6649ZM10.7303 13.2931C10.7761 13.343 10.797 13.368 10.8196 13.3897C12.9602 15.5207 15.1008 17.6516 17.2447 19.7793C17.3606 19.8952 17.4901 20.0047 17.631 20.0851C18.3633 20.506 19.1584 20.3869 19.7837 19.7657C21.913 17.65 24.04 15.5327 26.1677 13.4154C26.2007 13.3825 26.2305 13.3462 26.2788 13.2931H10.7303ZM10.8413 24.6947H26.1734C24.6001 23.0892 22.9938 21.45 21.365 19.7882C21.0874 20.0707 20.8323 20.3338 20.5747 20.5937C20.0484 21.1233 19.4175 21.4307 18.6683 21.4701C17.7951 21.516 17.0548 21.2102 16.4391 20.5945C16.18 20.3354 15.9249 20.0715 15.6481 19.789C14.0201 21.4508 12.4138 23.0901 10.8413 24.6947ZM9.91263 14.0874V23.9061C11.5535 22.2346 13.1638 20.5945 14.7387 18.9899C13.1646 17.3909 11.5551 15.7556 9.91263 14.0874ZM22.3001 18.9843C23.8686 20.5833 25.4773 22.2233 27.1012 23.8787V14.1051C25.47 15.7629 23.8613 17.3981 22.3001 18.9843Z" fill="black"/>
</svg>
