<svg width="15" height="15" viewBox="0 0 15 15" fill="none" xmlns="http://www.w3.org/2000/svg">
    <path d="M6.46399 12.5709C3.08507 12.5709 0.335938 9.82256 0.335938 6.44364C0.335938 3.0655 3.08507 0.316372 6.46399 0.316372C9.84213 0.316372 12.5913 3.0655 12.5913 6.44364C12.5913 9.82256 9.84213 12.5709 6.46399 12.5709ZM6.46399 1.50168C3.73857 1.50168 1.52125 3.719 1.52125 6.44364C1.52125 9.16906 3.73857 11.3856 6.46399 11.3856C9.18863 11.3856 11.4059 9.16906 11.4059 6.44364C11.4059 3.719 9.18863 1.50168 6.46399 1.50168Z" fill="white"/>
    <path d="M14.1195 15C13.9678 15 13.816 14.9423 13.7007 14.8262L9.79547 10.921C9.56394 10.6894 9.56394 10.3149 9.79547 10.0833C10.027 9.8518 10.4024 9.8518 10.6339 10.0833L14.5383 13.9885C14.7698 14.2201 14.7698 14.5946 14.5383 14.8262C14.4229 14.9423 14.2712 15 14.1195 15Z" fill="white"/>
</svg>
