<svg width="36" height="21" viewBox="0 0 36 21" fill="none" xmlns="http://www.w3.org/2000/svg">
    <path d="M18.0009 9.92333C23.1576 9.92333 28.3143 9.92206 33.471 9.92431C34.7348 9.9248 35.6643 10.6165 35.9285 11.7548C35.9776 11.9661 35.9853 12.1907 35.9858 12.4092C35.9899 14.401 35.9922 16.3928 35.987 18.3846C35.9831 19.9074 35.0096 20.8865 33.4883 20.8869C23.1627 20.8897 12.8371 20.8897 2.51156 20.8869C0.990063 20.8864 0.0175692 19.9068 0.0139438 18.3835C0.00924058 16.4161 0.0110043 14.4487 0.0133559 12.4814C0.0152176 10.8874 0.975659 9.92451 2.56761 9.92402C7.71208 9.92226 12.8564 9.92333 18.0009 9.92333ZM3.13043 11.5054C2.82452 11.5054 2.56927 11.4931 2.31569 11.5081C1.88554 11.5335 1.57914 11.8296 1.57718 12.2656C1.56778 14.3556 1.56788 16.4455 1.57669 18.5354C1.57865 18.9882 1.88946 19.2788 2.34205 19.3069C2.46384 19.3144 2.58642 19.3113 2.70861 19.3113C12.9017 19.3115 23.0947 19.3115 33.2878 19.3113C33.41 19.3113 33.5326 19.3145 33.6544 19.3072C34.1076 19.28 34.4219 18.9906 34.4239 18.5396C34.4333 16.4497 34.4318 14.3597 34.4245 12.2698C34.4233 11.8943 34.1716 11.5719 33.834 11.5299C33.5268 11.4917 33.211 11.5219 32.8707 11.5219C32.8707 12.2855 32.8788 13.0171 32.868 13.7482C32.8599 14.2853 32.5459 14.6147 32.0768 14.612C31.6122 14.6092 31.3086 14.2748 31.2963 13.7368C31.2879 13.3703 31.2944 13.0035 31.2943 12.6368C31.2942 12.2638 31.2943 11.8908 31.2943 11.5173H29.7569C29.7491 11.6273 29.737 11.7217 29.7367 11.8163C29.7345 12.4885 29.7447 13.1608 29.7309 13.8328C29.7215 14.2896 29.3998 14.6035 28.9729 14.6123C28.535 14.6213 28.2147 14.3237 28.1831 13.8712C28.173 13.7252 28.1775 13.578 28.1774 13.4315C28.1769 12.7996 28.1772 12.1677 28.1772 11.5213H26.6002C26.6002 11.6728 26.6004 11.8038 26.6002 11.9349C26.5992 12.5704 26.6104 13.2062 26.5933 13.8413C26.579 14.3708 26.1528 14.6999 25.6516 14.5981C25.2817 14.5229 25.0461 14.2046 25.0431 13.7531C25.0383 13.0117 25.0419 12.2701 25.0419 11.5256H23.4822C23.4822 12.2937 23.4927 13.037 23.4784 13.7798C23.4686 14.2915 23.1491 14.6122 22.6938 14.612C22.2393 14.6118 21.929 14.2893 21.9091 13.7785C21.8973 13.4734 21.9063 13.1675 21.9062 12.862C21.9061 12.4154 21.9062 11.9688 21.9062 11.5296H20.3464C20.3464 12.3151 20.3559 13.0716 20.3428 13.8277C20.3346 14.3009 19.9986 14.6178 19.5532 14.6121C19.1192 14.6066 18.8184 14.303 18.7929 13.8398C18.7856 13.7057 18.7892 13.571 18.7892 13.4366C18.7889 12.8044 18.789 12.1722 18.789 11.5207H17.212C17.212 11.6684 17.2122 11.799 17.212 11.9298C17.2112 12.5653 17.2219 13.2011 17.2056 13.8362C17.1919 14.3676 16.7706 14.6972 16.2686 14.5988C15.8971 14.5259 15.6582 14.2079 15.6551 13.7582C15.65 13.0164 15.6537 12.2746 15.6537 11.5238H14.1124C14.1058 11.6535 14.096 11.7608 14.0957 11.8681C14.0935 12.5159 14.1072 13.1641 14.0881 13.8112C14.0737 14.3007 13.7532 14.6097 13.3107 14.612C12.8686 14.6142 12.5534 14.3047 12.5231 13.8202C12.5078 13.5766 12.5183 13.3314 12.5181 13.0871C12.5177 12.5667 12.518 12.0464 12.518 11.5276H10.9591C10.9591 12.2986 10.9658 13.0424 10.9568 13.786C10.9506 14.3018 10.6094 14.6328 10.1335 14.6109C9.70488 14.5911 9.41161 14.2829 9.40495 13.8083C9.39447 13.0538 9.40211 12.2991 9.40211 11.532H7.82388C7.82388 11.6962 7.82407 11.8287 7.82388 11.9613C7.82309 12.5846 7.83358 13.2082 7.8179 13.8311C7.80438 14.365 7.38892 14.6947 6.88548 14.5994C6.51236 14.5289 6.27034 14.2114 6.267 13.7633C6.26161 13.0212 6.26553 12.279 6.26553 11.522H4.7068V11.9364C4.70651 12.5474 4.71719 13.1589 4.70269 13.7696C4.68956 14.3266 4.32143 14.6618 3.81789 14.6067C3.41057 14.562 3.13945 14.2388 3.13298 13.7521C3.12318 13.0205 3.13043 12.2887 3.13043 11.5054Z" fill="#ACACAC"/>
    <path d="M33.2838 5.25015H2.74923C2.82106 5.3451 2.86633 5.42133 2.92688 5.48238C3.41749 5.9771 3.91485 6.46506 4.40223 6.96302C4.7778 7.34682 4.7974 7.80617 4.46739 8.13412C4.13894 8.46051 3.67685 8.4414 3.29677 8.06456C2.28998 7.06619 1.28633 6.0646 0.289143 5.05663C-0.0929951 4.67048 -0.0973064 4.24307 0.281893 3.85878C1.28653 2.84092 2.2986 1.83041 3.3148 0.824206C3.67999 0.462546 4.13228 0.449612 4.45867 0.764729C4.79377 1.08827 4.78495 1.55419 4.41026 1.93574C3.86273 2.49337 3.30049 3.0364 2.68927 3.64008H33.2442C33.1863 3.56512 33.1398 3.49006 33.0793 3.42902C32.5885 2.93449 32.0912 2.44633 31.6037 1.94857C31.224 1.56095 31.2013 1.11228 31.5292 0.778153C31.8566 0.444517 32.3167 0.456863 32.6998 0.835866C33.7076 1.83305 34.7114 2.83465 35.7074 3.84369C36.1015 4.24288 36.0958 4.67058 35.7002 5.06996C34.7021 6.07714 33.6993 7.07952 32.6917 8.0771C32.3168 8.44826 31.8462 8.4563 31.5216 8.12109C31.2068 7.79618 31.2256 7.34751 31.5861 6.9784C32.0556 6.4974 32.5359 6.02678 33.0102 5.55028C33.0911 5.46895 33.1652 5.38067 33.2838 5.25015Z" fill="#ACACAC"/>
</svg>
