<svg width="155" height="73" viewBox="0 0 155 73" fill="none" xmlns="http://www.w3.org/2000/svg">
    <path d="M147.97 46.1384H144.885C144.431 46.1384 144.001 45.9234 143.731 45.5547C143.461 45.1861 143.383 44.7116 143.523 44.2747C145.031 39.5199 146.714 32.6009 146.168 26.6514C146.131 26.252 146.264 25.8526 146.537 25.5557C146.806 25.2587 147.189 25.088 147.595 25.088H150.114C151.496 25.088 152.742 25.641 153.626 26.6377C154.521 27.6515 154.917 28.9827 154.743 30.3856C154.49 32.2323 154.241 34.0584 154.053 35.888C153.93 36.7891 153.828 37.6459 153.725 38.4924C153.609 39.4755 153.49 40.4551 153.353 41.4143C153.019 44.0528 150.653 46.1384 147.97 46.1384ZM146.817 43.278H147.97C149.216 43.278 150.36 42.271 150.517 41.032C150.653 40.0728 150.769 39.1137 150.885 38.1511C150.991 37.2875 151.094 36.4171 151.213 35.5501C151.397 33.7376 151.65 31.8773 151.906 30.017C151.974 29.4572 151.824 28.9213 151.483 28.5321C151.148 28.1601 150.664 27.9519 150.114 27.9519H149.117C149.298 33.2017 148.093 38.8611 146.817 43.278ZM9.89169 46.1384H6.74454C4.09916 46.1384 1.76098 44.0528 1.42306 41.3938C1.29335 40.4688 1.17729 39.5096 1.05782 38.5436C0.955422 37.68 0.849607 36.8096 0.730138 35.9358C0.603842 35.0073 0.494614 34.0789 0.381972 33.147C0.272743 32.2323 0.163514 31.3175 0.0406319 30.4027C-0.136865 28.9964 0.272743 27.6242 1.16023 26.624C2.0204 25.6478 3.27653 25.088 4.60434 25.088H7.18487C7.58765 25.088 7.97337 25.2587 8.24302 25.5557C8.5161 25.8526 8.6458 26.252 8.61167 26.6514C8.06553 32.6009 9.74833 39.5199 11.2571 44.2747C11.397 44.7116 11.3185 45.1861 11.0488 45.5547C10.7792 45.9234 10.3491 46.1384 9.89169 46.1384ZM4.60434 27.9519C4.08892 27.9519 3.6247 28.1533 3.30384 28.5185C2.95567 28.911 2.80548 29.4503 2.87716 30.034C3.00346 30.9488 3.11269 31.8773 3.22533 32.8091C3.33456 33.7239 3.44379 34.6353 3.56667 35.5501C3.68614 36.4342 3.79537 37.3216 3.90118 38.2023C4.01383 39.1478 4.12647 40.0899 4.25959 41.0115C4.41661 42.2506 5.55327 43.278 6.74454 43.278H7.96312C6.6831 38.8611 5.48159 33.2017 5.6625 27.9519H4.60434Z" fill="#FFDF30"/>
    <path d="M40.469 72.5923C35.8439 72.5923 29.6997 72.1212 24.2656 70.1585C16.3738 67.2059 10.4721 51.1084 8.85072 46.2443C5.22228 35.1712 2.79194 20.7155 11.8067 14.7113C41.2268 -4.90548 113.553 -4.90207 142.973 14.7113C152.538 21.1285 148.889 37.2227 145.864 46.2443C144.752 49.685 138.761 67.0728 130.528 70.1517C123.22 72.7937 114.601 72.7391 110.109 72.466C104.736 72.1724 86.7888 70.4555 81.7267 60.7614C80.1839 57.7474 78.7298 54.7914 77.3883 51.9378C76.0537 54.7846 74.603 57.7406 73.0601 60.7512C67.9878 70.4623 49.9958 72.1758 44.6026 72.466C43.4626 72.5342 42.0528 72.5923 40.469 72.5923ZM77.3917 2.73712C52.5695 2.73712 27.7507 7.51928 13.3939 17.0939C5.48169 22.3641 8.85413 37.0588 11.5678 45.3465C14.5545 54.3033 19.9306 65.4787 25.2555 67.4722C32.055 69.9298 40.1925 69.8684 44.4388 69.609C54.7746 69.0492 67.0491 66.0795 70.5171 59.437C72.5481 55.4673 74.4255 51.5931 76.0878 47.9339C76.552 46.9099 78.228 46.9099 78.6922 47.9339C80.3614 51.6033 82.2353 55.4775 84.2663 59.4473C87.7309 66.0761 99.9713 69.0458 110.273 69.609C114.547 69.8684 122.732 69.9298 129.542 67.4653C135.331 65.3013 140.819 52.5454 143.147 45.35C145.376 38.6938 149.664 22.644 141.383 17.0905C127.033 7.5227 102.207 2.73712 77.3917 2.73712ZM49.8115 59.4302C49.593 59.4302 49.3746 59.3824 49.1663 59.2766C48.4632 58.9216 48.1799 58.058 48.5383 57.3549L71.2681 12.4585C71.6231 11.7519 72.4833 11.4686 73.1898 11.827C73.893 12.1854 74.1763 13.0456 73.8179 13.7522L51.0881 58.6485C50.8389 59.1469 50.3337 59.4302 49.8115 59.4302ZM29.3482 59.4302C29.1297 59.4302 28.9078 59.3824 28.703 59.2766C27.9965 58.9182 27.7166 58.058 28.075 57.3515L50.8662 12.4551C51.2246 11.7519 52.0882 11.4754 52.7914 11.827C53.4945 12.1854 53.7744 13.0456 53.4194 13.7522L30.6248 58.6485C30.3722 59.1469 29.8704 59.4302 29.3482 59.4302ZM115.987 57.587C115.769 57.587 115.547 57.5392 115.338 57.4334C114.635 57.075 114.352 56.2148 114.71 55.5082L130.074 25.2382C130.432 24.5351 131.296 24.2552 131.999 24.6102C132.702 24.9686 132.982 25.8288 132.627 26.5353L117.264 56.8053C117.011 57.3003 116.506 57.587 115.987 57.587ZM95.5851 52.1187C95.3667 52.1187 95.1448 52.0675 94.9366 51.9651C94.2334 51.6067 93.9535 50.7465 94.3119 50.04L109.672 19.77C110.031 19.0668 110.894 18.7869 111.597 19.1419C112.301 19.5003 112.584 20.3605 112.225 21.0636L96.8617 51.3371C96.6091 51.832 96.1074 52.1187 95.5851 52.1187Z" fill="#FFDF30"/>
    <path d="M40.4893 67.3665C35.0654 67.3665 29.8907 66.6872 26.0199 65.257C20.7154 63.267 12.4345 45.3057 10.9907 32.6829C10.2022 25.7606 11.431 21.1696 14.643 19.0362C42.1994 0.627749 112.577 0.627749 140.14 19.0362C143.342 21.1798 144.557 25.7879 143.751 32.7376C142.26 45.6129 134.136 63.2397 128.767 65.2536C116.383 69.8309 90.6423 66.7111 86.2561 58.3483C83.4673 52.9688 81.5251 48.6918 80.1085 45.5685C79.0367 43.2064 78.0196 40.9536 77.3915 40.0422C76.76 40.9536 75.7394 43.2064 74.6676 45.5685C73.2544 48.6918 71.3122 52.9688 68.5235 58.3414L68.5167 58.3483C65.5026 64.093 52.4054 67.3665 40.4893 67.3665ZM77.3915 7.95972C53.5216 7.95972 29.6654 12.4415 16.2302 21.4153C14.0457 22.8694 13.1957 26.7539 13.834 32.3587C15.3018 45.1896 23.4632 61.2428 27.02 62.5741C38.8645 66.9534 62.5364 63.581 65.9805 57.0205C68.7385 51.7161 70.6569 47.48 72.0598 44.3875C74.5345 38.9295 75.4595 36.8882 77.3915 36.8882C79.3201 36.8882 80.2451 38.9295 82.713 44.3875C84.1227 47.48 86.041 51.7195 88.7956 57.0239C92.2329 63.581 115.918 66.9569 127.766 62.5741C131.289 61.2497 139.423 45.2272 140.908 32.4099C141.563 26.7743 140.72 22.8694 138.546 21.4153C125.118 12.4449 101.248 7.95972 77.3915 7.95972Z" fill="#FFDF30"/>
</svg>
