<svg width="118" height="93" viewBox="0 0 118 93" fill="none" xmlns="http://www.w3.org/2000/svg">
    <path d="M43.5096 12.3949L43.5085 12.3935C43.3853 12.2354 43.3414 12.0239 43.3925 11.8246C44.1298 8.9909 44.9561 6.11375 46.0325 3.94919C47.1283 1.74531 48.3721 0.5 49.852 0.5C50.1773 0.5 50.4529 0.734687 50.5053 1.05623C50.5053 1.05636 50.5053 1.0565 50.5054 1.05663L52.2417 11.8837C52.2418 11.8841 52.2418 11.8845 52.2419 11.8849C52.2716 12.0796 52.2157 12.2748 52.0919 12.4196L52.0904 12.4214C51.9685 12.5654 51.7825 12.6517 51.589 12.6517H44.0304C43.8284 12.6517 43.6355 12.5576 43.5096 12.3949ZM45.0633 10.6969L44.8869 11.3309H45.545H50.2281H50.8147L50.7218 10.7517L49.4295 2.69657L49.2776 1.75017L48.5883 2.41621C47.9883 2.99606 47.4111 4.00273 46.8403 5.3589C46.2633 6.72991 45.6709 8.51299 45.0633 10.6969Z" stroke="#FFCF30"/>
    <path d="M57.0141 30.3632C56.4241 30.6104 56.1436 31.2919 56.3929 31.882C56.9497 33.2158 57.5294 34.5975 58.2088 35.9708M57.0141 30.3632L58.6569 35.7491L58.2088 35.9708M57.0141 30.3632C57.6021 30.1118 58.2836 30.3923 58.5308 30.9844L58.594 31.1348C59.1275 32.404 59.661 33.6731 60.2906 34.9403L57.0141 30.3632ZM58.2088 35.9708L58.6564 35.7481M58.2088 35.9708L58.6564 35.7481M58.6564 35.7481C57.9853 34.3914 57.4115 33.0242 56.8543 31.6893L56.8535 31.6873M58.6564 35.7481L56.8535 31.6873M56.8535 31.6873C56.7125 31.3538 56.8709 30.9653 57.2074 30.8243L57.2107 30.8229M56.8535 31.6873L57.2107 30.8229M57.2107 30.8229C57.54 30.6821 57.9279 30.8381 58.0694 31.1771L58.0699 31.1782M57.2107 30.8229L58.0699 31.1782M58.0699 31.1782L58.135 31.3329M58.0699 31.1782L58.135 31.3329M58.135 31.3329C58.6668 32.5982 59.2056 33.88 59.8421 35.1613L58.135 31.3329ZM2.76883 69.9705L2.88698 69.7439L2.77254 69.5154C1.01251 66.0014 0.43814 61.7454 0.505184 56.8721C0.572231 51.9986 1.27865 46.5613 2.04216 40.6977L2.04221 40.6974L2.05648 40.5872C3.18443 31.8805 4.46881 21.9664 3.75082 12.0373L3.75083 12.0373L3.75061 12.0345C3.73677 11.8569 3.79875 11.6774 3.9245 11.5404C4.04958 11.4063 4.22384 11.3309 4.40731 11.3309H53.3782C53.7362 11.3309 54.0305 11.6186 54.0376 11.9773L54.0376 11.978C54.086 14.253 54.3172 16.6183 54.7422 19.206L54.7425 19.2075C54.8027 19.5676 54.5602 19.9063 54.199 19.9655L54.1963 19.9659C53.8547 20.0238 53.5001 19.7783 53.4415 19.422L53.4414 19.4217C53.0723 17.1865 52.8482 15.1159 52.7557 13.1285L52.7335 12.6517H52.2562H5.64561H5.11659L5.1464 13.1799C5.69188 22.8456 4.45457 32.3722 3.35051 40.8658L3.84577 40.9302L3.35051 40.8658L3.34742 40.8896C2.5944 46.6838 1.88769 52.1216 1.82604 56.9378C1.76433 61.7582 2.34626 66.0214 4.2226 69.4358L4.22263 69.4358C4.33279 69.6363 4.3304 69.8825 4.21505 70.084C1.7206 74.3985 1.9959 79.8372 2.25265 84.9094L2.25619 84.9792C2.33732 86.5956 2.41554 88.1809 2.41554 89.7121C2.41554 90.0752 2.12056 90.3714 1.75412 90.3714C1.38767 90.3714 1.09269 90.0752 1.09269 89.7121C1.09269 88.2072 1.0151 86.6596 0.93733 85.1086L0.934164 85.0455L0.434791 85.0705L0.934161 85.0454C0.668812 79.7635 0.415923 74.4829 2.76883 69.9705ZM110.58 61.361L110.58 61.3608C107.788 58.7142 103.222 57.7139 97.1431 58.2378L97.1426 58.2378C80.5337 59.6843 70.2369 51.7325 64.5116 44.7984L64.5105 44.7972C64.279 44.5187 64.3182 44.1015 64.5997 43.8697L64.6021 43.8677C64.8771 43.6383 65.2958 43.6746 65.5291 43.9576L65.5294 43.958C71.0443 50.6348 80.9986 58.3194 97.0277 56.9216C103.695 56.3434 108.504 57.5701 111.489 60.4034C113.842 62.6378 115.043 65.9294 114.903 69.9818L114.903 69.9825C114.892 70.3388 114.597 70.621 114.244 70.621H114.212C113.855 70.604 113.571 70.2999 113.582 69.9354C113.708 66.3062 112.722 63.3945 110.58 61.361Z" stroke="#FFCF30"/>
    <path d="M98.9345 56.9315L98.9352 56.932C99.2374 57.135 99.3187 57.5434 99.1144 57.8489C96.7593 61.3584 94.203 67.0179 95.5381 73.9087L95.5382 73.9092C95.6079 74.2674 95.374 74.6129 95.0166 74.6813L95.0093 74.6827L95.0021 74.6843C94.9703 74.6914 94.9329 74.6953 94.8883 74.6953C94.5796 74.6953 94.3044 74.4769 94.2427 74.161C92.7499 66.4616 95.9573 60.1857 98.0188 57.1118C98.2223 56.8097 98.6313 56.727 98.9345 56.9315Z" stroke="#FFCF30"/>
    <path d="M3.64663 35.9218C6.09497 37.8735 8.21937 39.5033 10.0748 40.9268L10.1525 40.9864L10.1525 40.9864C14.8788 44.6119 17.8864 46.9224 20.1441 49.8313C22.3899 52.7251 23.9129 56.2405 25.5716 62.3063C25.6669 62.658 25.4618 63.019 25.109 63.1173C25.0451 63.1341 24.9873 63.1415 24.9341 63.1415C24.6422 63.1415 24.3768 62.9477 24.2965 62.6557C22.7285 56.9227 21.3098 53.5174 19.0951 50.6584C16.9003 47.8251 13.9425 45.5571 9.39807 42.0724L9.35037 42.0358L9.3503 42.0358C7.46397 40.5898 5.30877 38.9366 2.82193 36.9538M3.64663 35.9218C3.64649 35.9217 3.64635 35.9216 3.64622 35.9215L3.95788 35.5305L3.64692 35.9221C3.64682 35.922 3.64673 35.9219 3.64663 35.9218ZM3.64663 35.9218C3.35694 35.692 2.94426 35.7409 2.71797 36.0249C2.49086 36.31 2.53675 36.7251 2.82193 36.9538M2.82193 36.9538C2.82177 36.9537 2.82161 36.9535 2.82145 36.9534L2.50975 37.3443L2.82229 36.9541C2.82217 36.954 2.82205 36.9539 2.82193 36.9538Z" stroke="#FFCF30"/>
    <path d="M3.87562 71.6279L3.45021 71.3652C3.44269 71.3774 3.43521 71.3895 3.42778 71.4015C3.06061 71.996 2.78984 72.4343 2.62754 72.9572C2.46063 73.4949 2.41574 74.0922 2.41574 75.0145V88.5548V89.0506L2.9116 89.0547C8.16761 89.0983 13.4653 89.4153 18.6179 89.725L18.6183 89.725L18.7921 89.7353C23.8446 90.0353 29.0659 90.3454 34.2242 90.3886L34.7362 90.3929L34.7284 89.8809C34.7273 89.8111 34.7257 89.7422 34.7241 89.6761L34.724 89.6701C34.7225 89.6056 34.721 89.544 34.7201 89.4837L34.72 89.4803C34.6936 88.3303 34.6731 87.3696 34.8141 86.5684C34.9515 85.788 35.2334 85.2154 35.7771 84.802C36.2437 84.4483 36.8576 84.2449 37.7812 84.2449C38.9762 84.2449 40.6364 84.5848 43.0511 85.3143L43.0517 85.3145C57.2942 89.596 71.5314 91.3424 84.19 90.6408C96.8422 89.9395 107.953 86.7902 115.909 81.2443L116.109 81.1052L116.123 80.8623C116.36 76.6484 115.832 73.6432 114.313 71.2152L114.064 70.8183L113.652 71.04C93.5021 81.876 71.8547 78.2153 48.7312 74.2889C34.3427 71.8451 19.3909 69.3063 4.30389 70.3666L4.04382 70.3849L3.90992 70.6086C3.74101 70.8908 3.58842 71.1403 3.44966 71.3661L3.87562 71.6279ZM3.87562 71.6279C4.01483 71.4014 4.16858 71.1501 4.33895 70.8654L43.1957 84.8357C40.7752 84.1044 39.0549 83.7449 37.7812 83.7449C36.7798 83.7449 36.0505 83.9672 35.475 84.4036C34.1451 85.4143 34.1672 87.1686 34.2178 89.3885C34.2227 89.3886 34.2277 89.3886 34.2326 89.3886L34.2317 89.4915V89.4916L34.2284 89.8885C34.2284 89.8886 34.2284 89.8886 34.2284 89.8886L33.7285 89.8963C33.7284 89.8921 33.7283 89.8878 33.7283 89.8836C28.7456 89.8254 23.7087 89.5264 18.8161 89.2358L18.6479 89.2259C13.4973 88.9163 8.1868 88.5984 2.91574 88.5548V75.0145C2.91574 73.1841 3.10065 72.8828 3.87562 71.6279ZM36.0389 89.4469L36.0389 89.448C36.0514 89.9528 36.0637 90.4875 36.0637 91.0542C36.0637 91.4174 35.7688 91.7135 35.4023 91.7135C29.7875 91.7135 24.1041 91.3738 18.5904 91.0442L18.5406 91.0413L18.5406 91.0413C13.0477 90.7131 7.35446 90.3734 1.75432 90.3734C1.39111 90.3734 1.09497 90.0785 1.09497 89.712V75.0145C1.09497 73.8399 1.18777 73.1229 1.37578 72.5288C1.56487 71.9314 1.85897 71.4272 2.32536 70.6707L2.32549 70.6705L2.32575 70.6701C2.53566 70.3292 2.78247 69.9285 3.06937 69.4264L3.06937 69.4264C3.17846 69.2355 3.3752 69.1116 3.59152 69.0951L3.59187 69.0951C19.0463 67.9084 34.2043 70.4824 48.9403 72.9849L48.9544 72.9872L49.0381 72.4943L48.9544 72.9872L49.0826 73.009C72.0153 76.9029 93.8993 80.6188 113.919 69.3839C114.203 69.2247 114.564 69.2957 114.768 69.5582C117.575 73.2198 117.665 77.8061 117.404 81.5054L117.404 81.5075C117.391 81.7022 117.291 81.8817 117.131 81.9967L117.131 81.9969C107.878 88.654 94.1942 92.0938 78.6055 92.0938C67.2783 92.0958 54.9731 90.2777 42.6692 86.5802C40.6766 85.977 39.3265 85.6904 38.4122 85.5966C37.9549 85.5497 37.5902 85.5492 37.3 85.5883C37.0149 85.6268 36.7663 85.7083 36.5752 85.856C36.3389 86.0361 36.2285 86.3159 36.1673 86.5409C36.1011 86.7848 36.0652 87.0723 36.0451 87.3721C36.0055 87.9624 36.0219 88.6925 36.0381 89.412L36.0389 89.4469Z" stroke="#FFCF30"/>
    <path d="M46.6458 32.3044L46.6458 32.3045C46.747 32.3693 46.8688 32.4042 46.9932 32.4042C47.0403 32.4042 47.0908 32.3986 47.1435 32.3872C47.1442 32.387 47.1449 32.3869 47.1457 32.3867L58.1211 29.8598C58.1214 29.8597 58.1218 29.8597 58.1221 29.8596C58.6197 29.7423 59.0385 29.4411 59.3069 29.0032C59.5713 28.571 59.6469 28.0813 59.5385 27.6348L59.5368 27.6276L59.5368 27.6276L57.7625 19.8218L57.7582 19.8029L57.7553 19.7837C57.6823 19.2871 57.4155 18.8623 56.9974 18.5792L56.9971 18.5789C56.5692 18.2888 56.0278 18.1883 55.5315 18.3083L55.5262 18.3096L55.5262 18.3096L44.5478 20.8381L44.5476 20.8381C44.1924 20.9198 43.9718 21.2703 44.0508 21.6253L46.6458 32.3044ZM46.6458 32.3044L46.6417 32.3019C46.4931 32.2087 46.3887 32.0605 46.3512 31.8905L46.3508 31.889L44.0509 21.6256L46.6458 32.3044ZM17.7597 28.0115L17.7588 28.0107C17.5723 27.8478 17.4938 27.5946 17.5548 27.3562L17.5554 27.354C17.6161 27.1125 17.8075 26.9257 18.0448 26.8722L18.0463 26.8718L29.9865 24.1395C30.1822 24.1028 30.3583 24.1359 30.4952 24.2225L30.4968 24.2234C30.6442 24.3159 30.7495 24.4655 30.7873 24.6368L30.7876 24.6383L33.0855 34.9L33.0858 34.9012C33.1661 35.2555 32.9439 35.6069 32.592 35.6869L32.5912 35.6871L28.0951 36.7176L28.0951 36.7176L28.091 36.7186C28.0397 36.7308 27.9933 36.7361 27.9471 36.7361C27.7923 36.7361 27.6349 36.6786 27.5118 36.571C27.5117 36.571 27.5116 36.5709 27.5115 36.5708L17.7597 28.0115ZM20.5555 27.6526L19.602 27.8706L20.3371 28.5158L27.9372 35.1873L28.1293 35.3558L28.3784 35.2989L31.1708 34.6611L31.6564 34.5502L31.5473 34.0641L29.7522 26.0651L29.6423 25.5753L29.1529 25.6872L20.5555 27.6526ZM45.9715 21.8721L45.484 21.9816L45.5932 22.4692L47.382 30.462L47.4919 30.9529L47.9822 30.84L57.8262 28.5733L58.3083 28.4623L58.2024 27.979L56.4613 20.0319L56.3538 19.541L55.8634 19.6511L45.9715 21.8721Z" stroke="#FFCF30"/>
    <path d="M31.8302 22.6002H31.851V21.6002H31.8302V22.6002ZM31.7964 35.1785L31.7965 35.1784L31.7945 35.1697L29.5015 24.9303C29.5014 24.9297 29.5013 24.9292 29.5012 24.9286C29.1663 23.3754 30.1781 21.7896 31.6828 21.456L31.6828 21.456L31.686 21.4553L41.8458 19.1346L41.8458 19.1347L41.8571 19.1318C42.5935 18.9455 43.3843 19.0674 44.0556 19.4883L44.0561 19.4887C44.7262 19.9077 45.1819 20.5671 45.3418 21.3486L45.3417 21.3486L45.3438 21.3577L47.6386 31.5961C47.6387 31.5969 47.6389 31.5976 47.6391 31.5984C47.9675 33.1371 46.9986 34.7108 45.4835 35.1133L35.299 37.4416C35.0876 37.4857 34.8742 37.5069 34.6641 37.5069C34.0924 37.5069 33.5389 37.3411 33.0491 37.0233C32.3957 36.5932 31.9523 35.9387 31.7964 35.1785ZM31.9764 22.7451L31.9763 22.745L31.9669 22.7474L31.9649 22.7479C31.1381 22.9334 30.6156 23.8328 30.7885 24.6437L30.7885 24.6437L30.7896 24.6488L33.0866 34.8957C33.1756 35.3257 33.4166 35.6829 33.7744 35.9169C34.1356 36.156 34.582 36.2494 35.0196 36.1484C35.0196 36.1484 35.0196 36.1484 35.0196 36.1484L45.1618 33.8321L45.1696 33.8303L45.1774 33.8282C45.5944 33.7188 45.9263 33.4278 46.1313 33.0884C46.3372 32.7476 46.4414 32.3154 46.3498 31.8841L46.3499 31.8841L46.3486 31.8785L44.0517 21.6298C43.9625 21.1964 43.7174 20.8353 43.3527 20.6066L43.352 20.6062C43.1088 20.4542 42.8263 20.3702 42.5364 20.3702C42.4026 20.3702 42.2765 20.3892 42.1612 20.4165L31.9764 22.7451Z" stroke="#FFCF30"/>
    <path d="M24.7365 49.5777L24.7351 49.5768C24.5253 49.444 24.409 49.2061 24.4334 48.9627L24.4338 48.9582C24.4562 48.7131 24.616 48.4995 24.8434 48.4092L24.8441 48.409L36.2295 43.8702C36.3928 43.8073 36.5743 43.8089 36.743 43.8769C36.903 43.9498 37.0287 44.0816 37.0911 44.2424L37.0915 44.2433L40.9202 54.0426C40.9203 54.0429 40.9204 54.0431 40.9205 54.0434C41.0518 54.3828 40.8847 54.7642 40.5497 54.897L40.5496 54.897L36.2603 56.5982C36.2601 56.5983 36.26 56.5984 36.2598 56.5984C36.182 56.629 36.099 56.6445 36.0155 56.6445C35.8945 56.6445 35.7696 56.6092 35.661 56.54L24.7365 49.5777ZM23.936 48.9127L23.9359 48.9127L23.936 48.9127ZM27.4386 48.7973L26.5317 49.1589L27.3552 49.6835L35.8716 55.1083L36.0871 55.2456L36.3247 55.1513L38.9883 54.0938L39.4505 53.9102L39.2695 53.4471L36.2859 45.8116L36.1027 45.3427L35.635 45.5291L27.4386 48.7973ZM50.1219 38.3502L50.1226 38.3499L60.6419 34.2257L60.6486 34.2231L60.6552 34.2203C61.0935 34.0338 61.6269 34.0388 62.0935 34.2508C62.5436 34.4556 62.8903 34.841 63.0432 35.3015L63.0475 35.3144L63.0525 35.327L65.987 42.7866C66.3319 43.8543 65.7942 44.9014 64.8726 45.2123L64.8597 45.2166L64.847 45.2217L54.44 49.3762C54.4396 49.3763 54.4393 49.3765 54.439 49.3766C54.3574 49.4086 54.2743 49.4245 54.1931 49.4245C54.1068 49.4245 54.0177 49.4066 53.9287 49.3693C53.7693 49.2995 53.6418 49.1668 53.5784 49.0048C53.5784 49.0048 53.5784 49.0048 53.5784 49.0048L49.7494 39.2048C49.7493 39.2047 49.7493 39.2047 49.7493 39.2046C49.6165 38.864 49.7845 38.4819 50.1219 38.3502ZM51.6867 39.1575L51.2204 39.3393L51.4025 39.8054L54.384 47.4346L54.5673 47.9037L55.035 47.717L64.4157 43.9731L64.8733 43.7904L64.6975 43.3302L61.8033 35.755L61.6236 35.2848L61.1546 35.4676L51.6867 39.1575Z" stroke="#FFCF30"/>
    <path d="M37.4853 40.9376L37.4938 40.9348L37.5071 40.9295L47.2063 37.0635C47.2065 37.0634 47.2067 37.0633 47.207 37.0632C47.9487 36.7707 48.7449 36.7917 49.4719 37.1205L49.4733 37.1211C50.1807 37.4385 50.7315 38.0322 50.986 38.7394L50.9858 38.7395L50.9907 38.7522L54.8091 48.5223C54.8091 48.5225 54.8092 48.5227 54.8093 48.5229C55.404 50.0568 54.6783 51.718 53.1592 52.3186L53.1579 52.3191L43.4613 56.1836L43.4613 56.1835L43.4561 56.1857C43.1294 56.3202 42.7828 56.387 42.431 56.387C42.057 56.387 41.6781 56.3129 41.3136 56.16L37.4853 40.9376ZM37.4853 40.9376C36.0152 41.5572 35.2907 43.2548 35.8599 44.7236C35.8599 44.7238 35.86 44.724 35.8601 44.7242L39.6938 54.5327C39.9883 55.256 40.5792 55.8516 41.3134 56.1599L37.4853 40.9376ZM38.0053 42.153L38.0053 42.1529L37.9978 42.1561C37.1889 42.4939 36.7734 43.4218 37.0904 44.2418L37.0911 44.2434L40.9202 54.0418L40.9202 54.0418L40.9222 54.0467C41.084 54.4482 41.42 54.7718 41.8234 54.9418L41.8233 54.9419L41.8363 54.947C42.0149 55.0165 42.4716 55.1696 42.9649 54.9597L52.6715 51.0895C52.6716 51.0895 52.6716 51.0895 52.6716 51.0895C53.5148 50.7546 53.9054 49.846 53.5786 49.0023L53.5781 49.0009L49.7511 39.2082C49.6038 38.8057 49.3073 38.4958 48.9318 38.324C48.5389 38.1426 48.0945 38.1288 47.6925 38.291C47.692 38.2912 47.6916 38.2914 47.6912 38.2916L38.0053 42.153Z" stroke="#FFCF30"/>
</svg>
