<svg width="38" height="38" viewBox="0 0 38 38" fill="none" xmlns="http://www.w3.org/2000/svg">
    <path d="M18.5068 0.48645C28.7315 0.48645 37.0204 8.77526 37.0204 19C37.0204 29.2248 28.7315 37.5136 18.5068 37.5136C8.28198 37.5136 -0.00683594 29.2248 -0.00683594 19C-0.00683594 8.77526 8.28198 0.48645 18.5068 0.48645Z" fill="#FFCF30"/>
    <path d="M18.5074 28.1275C18.0548 28.1275 17.6022 27.9561 17.2577 27.6117L12.9434 23.2983C9.87694 20.2301 9.87694 15.2397 12.9434 12.1723C16.0098 9.10681 21.0012 9.10497 24.0695 12.1723C27.1368 15.2397 27.1368 20.2301 24.0695 23.2983L19.7561 27.6117C19.4116 27.9561 18.9599 28.1275 18.5074 28.1275ZM18.2288 26.6396C18.3818 26.7917 18.631 26.7926 18.784 26.6396L23.0974 22.3263C24.3242 21.1004 25.0003 19.4696 25.0003 17.7353C25.0003 16.001 24.3242 14.3702 23.0974 13.1444C21.8716 11.9176 20.2408 11.2424 18.5064 11.2424C16.7721 11.2424 15.1422 11.9176 13.9155 13.1444C12.6887 14.3702 12.0144 16.001 12.0144 17.7353C12.0144 19.4696 12.6887 21.1004 13.9155 22.3263L18.2288 26.6396Z" fill="black"/>
    <path d="M18.6363 21.0455C16.8351 21.0455 15.3701 19.5796 15.3701 17.7784C15.3701 15.9781 16.8351 14.5123 18.6363 14.5123C20.4375 14.5123 21.9025 15.9781 21.9025 17.7784C21.9025 19.5796 20.4375 21.0455 18.6363 21.0455ZM18.6363 15.8865C17.5928 15.8865 16.7444 16.7358 16.7444 17.7784C16.7444 18.8219 17.5928 19.6712 18.6363 19.6712C19.6798 19.6712 20.5282 18.8219 20.5282 17.7784C20.5282 16.7358 19.6798 15.8865 18.6363 15.8865Z" fill="black"/>
</svg>
