<svg width="1366" height="335" viewBox="0 0 1366 335" fill="none" xmlns="http://www.w3.org/2000/svg">
    <rect width="1366" height="335" fill="#151515"/>
    <path opacity="0.75" d="M1005.97 259.292L1067.34 197.92C1069.7 195.563 1069.7 191.743 1067.34 189.387L1005.97 128.015C1005.96 128.005 1005.95 128 1005.93 128H943.753C943.706 128 943.683 128.056 943.716 128.089L1009.24 193.616C1009.26 193.637 1009.26 193.67 1009.24 193.69L943.716 259.218C943.683 259.25 943.706 259.307 943.753 259.307H1005.93C1005.95 259.307 1005.96 259.302 1005.97 259.292Z" fill="#FFCF30" stroke="#FECF30"/>
    <path opacity="0.4" d="M1138.2 259.292L1199.57 197.92C1201.93 195.563 1201.93 191.743 1199.57 189.387L1138.2 128.015C1138.19 128.005 1138.18 128 1138.16 128H1075.98C1075.94 128 1075.92 128.056 1075.95 128.089L1141.47 193.616C1141.5 193.637 1141.5 193.67 1141.47 193.69L1075.95 259.218C1075.92 259.25 1075.94 259.307 1075.98 259.307H1138.16C1138.18 259.307 1138.19 259.302 1138.2 259.292Z" fill="#FFCF30" stroke="#FECF30"/>
    <path opacity="0.2" d="M1270.43 259.292L1331.81 197.92C1334.16 195.563 1334.16 191.743 1331.81 189.387L1270.43 128.015C1270.42 128.005 1270.41 128 1270.4 128H1208.22C1208.17 128 1208.15 128.056 1208.18 128.089L1273.71 193.616C1273.73 193.637 1273.73 193.67 1273.71 193.69L1208.18 259.218C1208.15 259.25 1208.17 259.307 1208.22 259.307H1270.4C1270.41 259.307 1270.42 259.302 1270.43 259.292Z" fill="#FFCF30" stroke="#FECF30"/>
    <path d="M873.737 259.292L935.108 197.92C937.465 195.564 937.465 191.743 935.108 189.387L873.737 128.015C873.727 128.006 873.714 128 873.7 128H811.521C811.475 128 811.451 128.057 811.484 128.09L877.011 193.616C877.031 193.637 877.031 193.67 877.011 193.69L811.484 259.218C811.451 259.25 811.475 259.307 811.521 259.307H873.7C873.714 259.307 873.727 259.302 873.737 259.292Z" fill="#FFCF30" stroke="black"/>
</svg>
