<svg width="38" height="38" viewBox="0 0 38 38" fill="none" xmlns="http://www.w3.org/2000/svg">
    <path d="M18.5068 0.48645C28.7315 0.48645 37.0204 8.77526 37.0204 19C37.0204 29.2248 28.7315 37.5136 18.5068 37.5136C8.28198 37.5136 -0.00683594 29.2248 -0.00683594 19C-0.00683594 8.77526 8.28198 0.48645 18.5068 0.48645Z" fill="#FFCF30"/>
    <path d="M19.9276 8.15594C20.4218 8.2846 20.9208 8.39474 21.4082 8.54387C22.9969 9.02926 24.4112 9.83435 25.6588 10.9309C26.9824 12.0956 28.0078 13.4826 28.7154 15.1006C29.0839 15.9456 29.3412 16.8238 29.5137 17.7293C29.5215 17.777 29.541 17.8238 29.5556 17.8706V17.9993C29.5507 18.0041 29.5439 18.008 29.541 18.0139C29.4094 18.3804 29.193 18.5597 28.9074 18.5422C28.5575 18.5197 28.3528 18.3199 28.2749 17.9028C27.9903 16.3667 27.4035 14.9573 26.4912 13.6902C25.2943 12.0323 23.762 10.7847 21.8565 10.0342C21.1918 9.77197 20.4861 9.61504 19.7941 9.42596C19.3984 9.31777 19.1917 9.15499 19.1576 8.85967C19.1225 8.55167 19.2609 8.34308 19.6284 8.15594H19.9276Z" fill="black"/>
    <path d="M14.4497 17.316C15.8776 19.8482 17.8134 21.8015 20.3739 23.2216C20.5444 23.0325 20.6965 22.8444 20.868 22.6748C21.2618 22.2829 21.6497 21.8814 22.0689 21.5178C22.8632 20.8297 23.9754 20.8209 24.7356 21.5441C25.7483 22.5071 26.7337 23.4994 27.6909 24.5169C28.3917 25.2606 28.3888 26.3942 27.7377 27.1827C27.4608 27.517 27.146 27.8191 26.8419 28.1301C26.4637 28.517 26.1021 28.9254 25.6918 29.2763C24.9169 29.9391 23.9929 30.1311 22.9929 30.0443C21.138 29.8835 19.4918 29.1291 17.8952 28.2431C15.9351 27.1554 14.1924 25.7821 12.666 24.1417C10.8063 22.1406 9.26825 19.9271 8.30039 17.352C7.94755 16.4144 7.68828 15.4543 7.66294 14.4436C7.63662 13.425 7.89492 12.5088 8.62398 11.7661C9.20393 11.1755 9.76242 10.5604 10.3853 10.0195C11.3453 9.18517 12.397 9.19491 13.3249 10.0663C14.3064 10.9883 15.2499 11.9542 16.1671 12.9406C16.864 13.6882 16.8572 14.811 16.1817 15.5781C15.6934 16.1337 15.1515 16.6434 14.632 17.1717C14.5881 17.2175 14.5326 17.2516 14.4497 17.316ZM23.2989 28.8231C24.0972 28.8279 24.684 28.5911 25.1645 28.0852C25.606 27.6203 26.0612 27.1671 26.5086 26.708C26.5934 26.6213 26.6772 26.5326 26.7503 26.437C27.0447 26.054 27.0359 25.6563 26.7289 25.2869C26.6567 25.1992 26.5768 25.1163 26.4969 25.0355C26.0134 24.551 25.529 24.0666 25.0446 23.5832C24.6966 23.2352 24.3535 22.8824 23.9988 22.5422C23.6186 22.1777 23.1956 22.1718 22.795 22.512C22.719 22.5763 22.6478 22.6485 22.5777 22.7186C22.0884 23.207 21.602 23.6992 21.1088 24.1836C20.755 24.5306 20.3622 24.5929 19.9353 24.3766C19.636 24.2255 19.3368 24.0744 19.0493 23.9038C17.7598 23.1348 16.6369 22.1611 15.6232 21.0587C14.7275 20.0841 13.9107 19.0538 13.359 17.8374C13.0686 17.1951 13.13 16.8793 13.6368 16.3881C14.1534 15.8871 14.671 15.3851 15.1661 14.8637C15.5326 14.4777 15.5219 14.082 15.1827 13.6765C15.1281 13.6112 15.0686 13.5488 15.0092 13.4884C14.2031 12.6804 13.398 11.8724 12.59 11.0663C12.0705 10.5468 11.6114 10.5419 11.0919 11.0546C10.5938 11.5449 10.087 12.0283 9.61524 12.542C9.39301 12.7837 9.19028 13.0703 9.07234 13.3724C8.81307 14.0313 8.88813 14.7214 9.02653 15.3958C9.23901 16.4349 9.63279 17.4125 10.1006 18.3589C10.9272 20.0324 12.0013 21.5373 13.246 22.9214C15.4458 25.3688 18.0551 27.2314 21.1527 28.3786C21.8778 28.6467 22.6313 28.7958 23.2989 28.8231Z" fill="black"/>
    <path d="M19.7351 12.1345C20.0119 12.2096 20.4291 12.2866 20.819 12.4318C23.4097 13.3987 24.9877 15.2447 25.5569 17.9505C25.631 18.3062 25.4361 18.6249 25.1017 18.7127C24.7781 18.7975 24.4516 18.6015 24.3444 18.2516C24.1982 17.777 24.1066 17.2769 23.9009 16.8296C23.0383 14.9455 21.5743 13.7964 19.5411 13.3782C19.1678 13.3022 18.97 13.0731 18.9778 12.7388C18.9865 12.3987 19.2565 12.1365 19.7351 12.1345Z" fill="black"/>
</svg>
