<svg width="89" height="70" viewBox="0 0 89 111" fill="none" xmlns="http://www.w3.org/2000/svg">
    <path d="M86.2849 110.514H2.71694C2.08294 110.514 1.56836 109.999 1.56836 109.365V103.028C1.56836 102.394 2.08294 101.879 2.71694 101.879H36.9634C37.1836 101.879 37.3318 101.682 37.3318 101.496V98.5323C37.3318 98.347 37.1836 98.1494 36.9634 98.1494H2.71694C2.08294 98.1494 1.56836 97.6348 1.56836 96.9988V92.5549C1.56836 91.9189 2.08294 91.4043 2.71694 91.4043H36.9634C37.1836 91.4043 37.3318 91.2067 37.3318 91.0214V88.0575C37.3318 87.8743 37.1836 87.6746 36.9634 87.6746H2.71694C2.08294 87.6746 1.56836 87.16 1.56836 86.5261V82.0286C1.56836 81.3947 2.08294 80.8801 2.71694 80.8801H36.9634C37.1856 80.8801 37.3318 80.7298 37.3318 80.4972V77.5847C37.3318 77.3521 37.1856 77.2018 36.9634 77.2018H2.71694C2.08294 77.2018 1.56836 76.6873 1.56836 76.0513V58.9857C1.56836 58.4423 1.94916 57.973 2.48228 57.8618C11.2734 56.0217 13.2617 39.4131 8.5605 7.08911C8.48023 6.53954 8.8034 6.01261 9.32825 5.83559C14.8899 3.94605 20.4515 2.00505 26.0151 0.0640444C26.3774 -0.0635717 26.7829 0.00229464 27.0895 0.236944C32.9476 4.70969 56.0523 4.70969 61.9144 0.236944C62.221 0.00229464 62.6266 -0.0635717 62.9888 0.0640444C68.5524 2.00505 74.112 3.94605 79.6736 5.83559C80.1984 6.01261 80.5217 6.54159 80.4413 7.09117C75.6969 39.4151 77.6852 56.0217 86.5196 57.8618C87.0527 57.973 87.4334 58.4423 87.4334 58.9857V76.0513C87.4334 76.6873 86.9189 77.2018 86.2849 77.2018H52.0385C51.8162 77.2018 51.6701 77.3521 51.6701 77.5847V80.4972C51.6701 80.7298 51.8162 80.8801 52.0385 80.8801H86.2849C86.9189 80.8801 87.4334 81.3947 87.4334 82.0286V86.5261C87.4334 87.16 86.9189 87.6746 86.2849 87.6746H52.0385C51.8183 87.6746 51.6701 87.8743 51.6701 88.0575V91.0214C51.6701 91.2067 51.8183 91.4043 52.0385 91.4043H86.2849C86.9189 91.4043 87.4334 91.9189 87.4334 92.5549V96.9988C87.4334 97.6348 86.9189 98.1494 86.2849 98.1494H52.0385C51.8183 98.1494 51.6701 98.347 51.6701 98.5323V101.496C51.6701 101.682 51.8183 101.879 52.0385 101.879H86.2849C86.9189 101.879 87.4334 102.394 87.4334 103.028V109.365C87.4334 109.999 86.9189 110.514 86.2849 110.514ZM3.86753 108.215H85.1343V104.178H52.0385C50.5668 104.178 49.3709 102.976 49.3709 101.496V98.5323C49.3709 97.0544 50.5668 95.8503 52.0385 95.8503H85.1343V93.7055H52.0385C50.5668 93.7055 49.3709 92.5014 49.3709 91.0214V88.0575C49.3709 86.5796 50.5668 85.3755 52.0385 85.3755H85.1343V83.1792H52.0385C50.5421 83.1792 49.3709 82.0019 49.3709 80.4972V77.5847C49.3709 76.0801 50.5421 74.9027 52.0385 74.9027H85.1343V59.879C75.4581 56.9562 73.266 40.7427 78.029 7.70249C72.947 5.9735 67.8671 4.20334 62.7891 2.42906C55.6365 7.04383 33.3674 7.04177 26.2148 2.42906C21.1348 4.20334 16.0549 5.9735 10.9729 7.70455C15.6905 40.7345 13.4964 56.9479 3.86753 59.879V74.9027H36.9634C38.4577 74.9027 39.6309 76.0801 39.6309 77.5847V80.4972C39.6309 82.0019 38.4577 83.1792 36.9634 83.1792H3.86753V85.3755H36.9634C38.435 85.3755 39.6309 86.5796 39.6309 88.0575V91.0214C39.6309 92.5014 38.435 93.7055 36.9634 93.7055H3.86753V95.8503H36.9634C38.435 95.8503 39.6309 97.0544 39.6309 98.5323V101.496C39.6309 102.976 38.435 104.178 36.9634 104.178H3.86753V108.215ZM44.501 103.616C43.8649 103.616 43.3503 103.102 43.3503 102.466V21.3821C43.3503 20.7482 43.8649 20.2336 44.501 20.2336C45.1369 20.2336 45.6515 20.7482 45.6515 21.3821V102.466C45.6515 103.102 45.1369 103.616 44.501 103.616Z" fill="#FFDF30"/>
    <path d="M51.8838 22.5311H37.1144C28.3918 22.5311 26.274 8.20414 25.2552 1.31954C25.1873 0.856451 25.4054 0.397477 25.8088 0.160787C26.2143 -0.0759036 26.7186 -0.0450309 27.089 0.236939C32.9466 4.71142 56.0517 4.71142 61.9113 0.236939C62.2838 -0.0470891 62.7963 -0.0759036 63.1956 0.162845C63.6011 0.403652 63.8172 0.862625 63.7451 1.32572C62.6831 8.21032 60.4727 22.5311 51.8838 22.5311ZM27.8937 3.31597C29.2748 11.6392 31.6561 20.2321 37.1144 20.2321H51.8838C57.7167 20.2321 60.026 9.74983 61.1004 3.31803C53.2628 6.74695 35.7313 6.74695 27.8937 3.31597Z" fill="#FFDF30"/>
    <path d="M51.885 22.5319H37.1153C29.5514 22.5319 27.1639 11.3887 26.3797 7.72717C26.285 7.28877 26.4538 6.83597 26.8119 6.5684C27.1742 6.29877 27.6537 6.26378 28.0489 6.47372C34.8163 10.1085 54.1923 10.1085 60.9514 6.47372C61.3446 6.26173 61.8241 6.29672 62.1884 6.5684C62.5465 6.83597 62.7153 7.28877 62.6207 7.72717C61.8365 11.3887 59.449 22.5319 51.885 22.5319ZM29.1419 9.44578C30.9963 16.6989 33.6143 20.2328 37.1153 20.2328H51.885C55.3861 20.2328 58.002 16.6989 59.8585 9.44578C51.9941 12.2326 37.0145 12.2346 29.1419 9.44578Z" fill="#FFDF30"/>
    <path d="M86.3337 104.178H52.037C50.5653 104.178 49.3695 102.974 49.3695 101.496V98.5319C49.3695 97.0541 50.5653 95.85 52.037 95.85H86.3337C87.7807 95.85 89.0012 97.0788 89.0012 98.5319V101.496C89.0012 102.949 87.7807 104.178 86.3337 104.178ZM52.037 98.1491C51.8168 98.1491 51.6706 98.3467 51.6706 98.5319V101.496C51.6706 101.681 51.8168 101.879 52.037 101.879H86.3337C86.5087 101.879 86.7022 101.679 86.7022 101.496V98.5319C86.7022 98.3487 86.5087 98.1491 86.3337 98.1491H52.037ZM36.9622 104.178H2.66752C1.19586 104.178 0 102.974 0 101.496V98.5319C0 97.0541 1.19586 95.85 2.66752 95.85H36.9622C38.4339 95.85 39.6298 97.0541 39.6298 98.5319V101.496C39.6298 102.974 38.4339 104.178 36.9622 104.178ZM2.66752 98.1491C2.4473 98.1491 2.2991 98.3467 2.2991 98.5319V101.496C2.2991 101.681 2.4473 101.879 2.66752 101.879H36.9622C37.1845 101.879 37.3307 101.681 37.3307 101.496V98.5319C37.3307 98.3467 37.1845 98.1491 36.9622 98.1491H2.66752ZM86.3337 93.7053H52.037C50.5653 93.7053 49.3695 92.5012 49.3695 91.0213V88.0574C49.3695 86.5796 50.5653 85.3755 52.037 85.3755H86.3337C87.7807 85.3755 89.0012 86.6043 89.0012 88.0574V91.0213C89.0012 92.4765 87.7807 93.7053 86.3337 93.7053ZM52.037 87.6746C51.8168 87.6746 51.6706 87.8742 51.6706 88.0574V91.0213C51.6706 91.2066 51.8168 91.4042 52.037 91.4042H86.3337C86.5087 91.4042 86.7022 91.2045 86.7022 91.0213V88.0574C86.7022 87.8763 86.5087 87.6746 86.3337 87.6746H52.037ZM36.9622 93.7053H2.66752C1.19586 93.7053 0 92.5012 0 91.0213V88.0574C0 86.5796 1.19586 85.3755 2.66752 85.3755H36.9622C38.4339 85.3755 39.6298 86.5796 39.6298 88.0574V91.0213C39.6298 92.5012 38.4339 93.7053 36.9622 93.7053ZM2.66752 87.6746C2.4473 87.6746 2.2991 87.8742 2.2991 88.0574V91.0213C2.2991 91.2066 2.4473 91.4042 2.66752 91.4042H36.9622C37.1845 91.4042 37.3307 91.2066 37.3307 91.0213V88.0574C37.3307 87.8742 37.1845 87.6746 36.9622 87.6746H2.66752ZM86.3337 83.1793H52.037C50.5427 83.1793 49.3695 82 49.3695 80.4974V77.585C49.3695 76.0804 50.5427 74.9031 52.037 74.9031H86.3337C87.8054 74.9031 89.0012 76.1051 89.0012 77.585V80.4974C89.0012 81.9753 87.8054 83.1793 86.3337 83.1793ZM52.037 77.2022C51.8147 77.2022 51.6706 77.3524 51.6706 77.585V80.4974C51.6706 80.73 51.8147 80.8803 52.037 80.8803H86.3337C86.5107 80.8803 86.7022 80.7259 86.7022 80.4974V77.585C86.7022 77.3565 86.5107 77.2022 86.3337 77.2022H52.037ZM36.9622 83.1793H2.66752C1.17117 83.1793 0 82 0 80.4974V77.585C0 76.0804 1.17117 74.9031 2.66752 74.9031H36.9622C38.4586 74.9031 39.6298 76.0804 39.6298 77.585V80.4974C39.6298 82 38.4586 83.1793 36.9622 83.1793ZM2.66752 77.2022C2.44522 77.2022 2.2991 77.3524 2.2991 77.585V80.4974C2.2991 80.73 2.44522 80.8803 2.66752 80.8803H36.9622C37.1866 80.8803 37.3307 80.73 37.3307 80.4974V77.585C37.3307 77.3524 37.1866 77.2022 36.9622 77.2022H2.66752Z" fill="#FFDF30"/>
</svg>
